<?xml version="1.0" encoding="utf-8"?>
<!-- Generator: Adobe Illustrator 23.0.0, SVG Export Plug-In . SVG Version: 6.00 Build 0)  -->
<svg version="1.1" xmlns="http://www.w3.org/2000/svg" xmlns:xlink="http://www.w3.org/1999/xlink" x="0px" y="0px"
	 viewBox="0 0 157 50" style="enable-background:new 0 0 157 50;" xml:space="preserve">
<style type="text/css">
	.st0{fill:url(#SVGID_1_);}
	.st1{fill:url(#SVGID_2_);}
	.st2{fill:url(#SVGID_3_);}
	.st3{fill:#5AD0E7;}
	.st4{fill:url(#SVGID_4_);}
	.st5{fill:#F8F9FA;}
	.st6{fill:url(#SVGID_5_);}
</style>
<g id="Layer_1">
</g>
<g id="Layer_2">
	<linearGradient id="SVGID_1_" gradientUnits="userSpaceOnUse" x1="-30.1427" y1="-10.7833" x2="99.1143" y2="99.1692">
		<stop  offset="0" style="stop-color:#90E0EF"/>
		<stop  offset="1" style="stop-color:#00B4D8"/>
	</linearGradient>
	<path class="st0" d="M25.544,18.336c0-6.136-4.971-11.106-11.106-11.106H7.774c-3.682,0-6.664,2.981-6.664,6.664v22.212
		c0,3.682,2.981,6.664,6.664,6.664h6.664c6.136,0,11.106-4.971,11.106-11.106c0-2.503-0.829-4.813-2.221-6.664
		C24.715,23.149,25.544,20.839,25.544,18.336z M12.217,38.327c-1.229,0-2.221-0.997-2.221-2.221v-8.885
		c0-1.229,0.992-2.221,2.221-2.221c3.682,0,6.664,2.981,6.664,6.664C18.881,35.341,15.899,38.327,12.217,38.327z"/>
	<path class="st3" d="M35.791,33.885V16.431h6.988c1.284,0,2.355,0.19,3.213,0.571c0.858,0.38,1.503,0.907,1.935,1.58
		c0.432,0.674,0.648,1.448,0.648,2.323c0,0.682-0.137,1.279-0.409,1.794c-0.273,0.514-0.646,0.935-1.121,1.261
		c-0.475,0.327-1.016,0.559-1.623,0.695v0.17c0.664,0.028,1.288,0.216,1.87,0.563s1.056,0.831,1.419,1.453
		c0.364,0.622,0.546,1.362,0.546,2.221c0,0.926-0.229,1.751-0.687,2.476c-0.457,0.725-1.132,1.297-2.023,1.717
		c-0.893,0.421-1.992,0.631-3.299,0.631H35.791z M39.482,23.735h2.735c0.506,0,0.956-0.09,1.351-0.269
		c0.396-0.179,0.708-0.433,0.938-0.763c0.23-0.329,0.346-0.725,0.346-1.185c0-0.631-0.224-1.139-0.669-1.525
		c-0.446-0.387-1.078-0.58-1.896-0.58h-2.804V23.735z M39.482,30.869h3.008c1.028,0,1.778-0.197,2.25-0.593
		c0.472-0.395,0.708-0.922,0.708-1.581c0-0.482-0.117-0.908-0.35-1.278c-0.233-0.369-0.564-0.659-0.993-0.869
		s-0.938-0.315-1.529-0.315h-3.094V30.869z M55.317,34.132c-0.835,0-1.58-0.146-2.233-0.438c-0.653-0.293-1.169-0.728-1.547-1.304
		c-0.378-0.577-0.566-1.297-0.566-2.161c0-0.727,0.134-1.338,0.4-1.832c0.268-0.494,0.631-0.892,1.091-1.193
		c0.461-0.301,0.984-0.528,1.572-0.682c0.589-0.153,1.206-0.262,1.854-0.324c0.761-0.079,1.375-0.154,1.841-0.226
		s0.804-0.178,1.014-0.319c0.21-0.143,0.315-0.353,0.315-0.631v-0.051c0-0.54-0.169-0.958-0.507-1.253
		c-0.338-0.296-0.817-0.443-1.437-0.443c-0.653,0-1.173,0.144-1.56,0.431c-0.386,0.286-0.642,0.646-0.767,1.078L51.43,24.51
		c0.171-0.795,0.506-1.484,1.006-2.066s1.146-1.031,1.939-1.347c0.792-0.315,1.711-0.473,2.757-0.473
		c0.728,0,1.425,0.085,2.092,0.255c0.668,0.171,1.262,0.436,1.781,0.793c0.521,0.358,0.931,0.817,1.231,1.377
		c0.302,0.56,0.452,1.229,0.452,2.007v8.829h-3.443V32.07h-0.103c-0.21,0.409-0.491,0.769-0.844,1.078
		c-0.352,0.311-0.775,0.552-1.27,0.725C56.535,34.046,55.964,34.132,55.317,34.132z M56.357,31.628c0.533,0,1.005-0.107,1.414-0.32
		s0.73-0.501,0.964-0.865c0.232-0.363,0.349-0.775,0.349-1.235v-1.39c-0.113,0.074-0.269,0.141-0.464,0.201
		c-0.196,0.06-0.417,0.113-0.661,0.161c-0.244,0.049-0.488,0.091-0.732,0.128s-0.466,0.07-0.665,0.099
		c-0.426,0.063-0.798,0.161-1.116,0.298s-0.565,0.319-0.741,0.55c-0.177,0.23-0.265,0.516-0.265,0.856
		c0,0.494,0.181,0.871,0.541,1.129C55.341,31.498,55.799,31.628,56.357,31.628z M65.577,33.885V16.431h3.631v6.563h0.11
		c0.159-0.353,0.391-0.712,0.695-1.078c0.304-0.366,0.701-0.674,1.193-0.921c0.491-0.247,1.104-0.37,1.836-0.37
		c0.955,0,1.836,0.248,2.643,0.745s1.451,1.244,1.935,2.242c0.482,0.997,0.725,2.245,0.725,3.745c0,1.461-0.234,2.692-0.703,3.694
		c-0.469,1.003-1.105,1.762-1.909,2.276c-0.805,0.514-1.703,0.771-2.697,0.771c-0.705,0-1.303-0.116-1.795-0.349
		c-0.491-0.233-0.894-0.527-1.205-0.883c-0.313-0.354-0.552-0.714-0.717-1.078h-0.161v2.097H65.577z M69.131,27.34
		c0,0.778,0.108,1.457,0.324,2.037c0.216,0.579,0.528,1.029,0.938,1.351s0.906,0.481,1.491,0.481c0.591,0,1.091-0.163,1.5-0.49
		c0.409-0.326,0.721-0.781,0.934-1.363c0.213-0.583,0.319-1.255,0.319-2.016c0-0.756-0.104-1.421-0.315-1.994
		c-0.21-0.574-0.52-1.023-0.929-1.347c-0.409-0.324-0.912-0.486-1.509-0.486c-0.591,0-1.089,0.156-1.495,0.469
		s-0.718,0.756-0.934,1.33C69.24,25.885,69.131,26.562,69.131,27.34z M82.564,38.769c-0.461,0-0.891-0.035-1.292-0.106
		c-0.4-0.071-0.731-0.158-0.992-0.26l0.818-2.719c0.642,0.198,1.183,0.251,1.623,0.157s0.788-0.436,1.044-1.026l0.213-0.555
		l-4.695-13.466H83.1l2.711,9.614h0.136l2.736-9.614l3.844,0.018L87.439,35.3c-0.245,0.699-0.575,1.309-0.993,1.828
		s-0.944,0.923-1.581,1.21S83.461,38.769,82.564,38.769z M106.205,33.885h-6.188V16.431h6.239c1.755,0,3.267,0.348,4.533,1.044
		c1.268,0.696,2.243,1.694,2.928,2.996c0.685,1.301,1.027,2.857,1.027,4.67c0,1.818-0.343,3.381-1.027,4.688s-1.665,2.31-2.94,3.009
		C109.502,33.536,107.978,33.885,106.205,33.885z M103.708,30.723h2.344c1.091,0,2.01-0.194,2.757-0.583
		c0.747-0.39,1.31-0.994,1.688-1.815s0.567-1.883,0.567-3.184c0-1.29-0.189-2.344-0.567-3.162s-0.938-1.42-1.683-1.807
		c-0.745-0.387-1.662-0.579-2.753-0.579h-2.353V30.723z M121.137,34.132c-0.835,0-1.58-0.146-2.233-0.438
		c-0.653-0.293-1.169-0.728-1.547-1.304c-0.378-0.577-0.566-1.297-0.566-2.161c0-0.727,0.134-1.338,0.4-1.832
		c0.268-0.494,0.631-0.892,1.091-1.193c0.461-0.301,0.984-0.528,1.572-0.682c0.589-0.153,1.206-0.262,1.854-0.324
		c0.761-0.079,1.375-0.154,1.841-0.226s0.804-0.178,1.014-0.319c0.21-0.143,0.315-0.353,0.315-0.631v-0.051
		c0-0.54-0.169-0.958-0.507-1.253c-0.338-0.296-0.817-0.443-1.437-0.443c-0.653,0-1.173,0.144-1.56,0.431
		c-0.386,0.286-0.642,0.646-0.767,1.078l-3.358-0.273c0.171-0.795,0.506-1.484,1.006-2.066s1.146-1.031,1.939-1.347
		c0.792-0.315,1.711-0.473,2.757-0.473c0.728,0,1.425,0.085,2.092,0.255c0.668,0.171,1.262,0.436,1.781,0.793
		c0.521,0.358,0.931,0.817,1.231,1.377c0.302,0.56,0.452,1.229,0.452,2.007v8.829h-3.443V32.07h-0.103
		c-0.21,0.409-0.491,0.769-0.844,1.078c-0.352,0.311-0.775,0.552-1.27,0.725C122.356,34.046,121.784,34.132,121.137,34.132z
		 M122.177,31.628c0.533,0,1.005-0.107,1.414-0.32s0.73-0.501,0.964-0.865c0.232-0.363,0.349-0.775,0.349-1.235v-1.39
		c-0.113,0.074-0.269,0.141-0.464,0.201c-0.196,0.06-0.417,0.113-0.661,0.161c-0.244,0.049-0.488,0.091-0.732,0.128
		s-0.466,0.07-0.665,0.099c-0.426,0.063-0.798,0.161-1.116,0.298s-0.565,0.319-0.741,0.55c-0.177,0.23-0.265,0.516-0.265,0.856
		c0,0.494,0.181,0.871,0.541,1.129C121.161,31.498,121.619,31.628,122.177,31.628z M133.162,19.107c-0.54,0-1.003-0.18-1.39-0.541
		c-0.387-0.36-0.579-0.794-0.579-1.3c0-0.5,0.192-0.931,0.579-1.291c0.387-0.361,0.847-0.541,1.381-0.541
		c0.546,0,1.01,0.18,1.394,0.541c0.384,0.36,0.575,0.791,0.575,1.291c0,0.506-0.191,0.939-0.575,1.3
		C134.163,18.927,133.701,19.107,133.162,19.107z M131.329,33.885V20.795h3.631v13.091H131.329z M141.489,16.431v17.454h-3.631
		V16.431H141.489z M146.627,38.769c-0.46,0-0.891-0.035-1.291-0.106s-0.731-0.158-0.993-0.26l0.818-2.719
		c0.642,0.198,1.184,0.251,1.624,0.157c0.439-0.094,0.788-0.436,1.044-1.026l0.213-0.555l-4.696-13.466h3.818l2.71,9.614h0.137
		l2.735-9.614l3.844,0.018L151.502,35.3c-0.244,0.699-0.575,1.309-0.993,1.828c-0.417,0.52-0.944,0.923-1.58,1.21
		C148.292,38.626,147.525,38.769,146.627,38.769z"/>
</g>
</svg>
